<?xml version="1.0" encoding="iso-8859-1"?>
<!-- Generator: Adobe Illustrator 19.0.0, SVG Export Plug-In . SVG Version: 6.00 Build 0)  -->
<svg version="1.1" id="Layer_1" xmlns="http://www.w3.org/2000/svg" xmlns:xlink="http://www.w3.org/1999/xlink" x="0px" y="0px"
	 viewBox="0 0 512.001 512.001" style="enable-background:new 0 0 512.001 512.001;" xml:space="preserve">
<path style="fill:#E49429;" d="M180.707,324.381V211.439H60.239v112.941h-0.003c0,33.266,26.964,60.235,60.235,60.235
	C153.736,384.616,180.707,357.647,180.707,324.381z"/>
<g>
	<path style="fill:#7BD9BF;" d="M180.741,466.824H143.06v-62.777c34.721-9.859,60.235-41.827,60.235-79.666V143.675
		c0-12.475-10.114-22.588-22.588-22.588H60.239c-12.475,0-22.588,10.114-22.588,22.588l-0.003,180.706
		c0,37.838,25.514,69.807,60.235,79.666v62.777H60.201c-12.475,0-22.588,10.113-22.588,22.588c0,12.476,10.114,22.588,22.588,22.588
		h120.541c12.475,0,22.588-10.112,22.588-22.588C203.329,476.937,193.217,466.824,180.741,466.824z M82.827,324.381V166.263h75.291
		v158.118c0,20.759-16.888,37.647-37.647,37.647c-10.058,0-19.512-3.917-26.621-11.026S82.826,334.438,82.827,324.381z"/>
	<path style="fill:#7BD9BF;" d="M406.624,185.294V22.588h-90.353v162.706c0,0-45.176,44.8-45.176,78.235v225.882H451.8V263.529
		C451.8,230.094,406.624,185.294,406.624,185.294z"/>
</g>
<path style="fill:#4B7244;" d="M451.8,512H271.094c-12.475,0-22.588-10.112-22.588-22.588V263.529
	c0-34.111,30.222-71.106,45.176-87.32V22.588C293.682,10.114,303.796,0,316.271,0h90.353c12.475,0,22.588,10.114,22.588,22.588
	v153.621c14.955,16.215,45.176,53.209,45.176,87.32v225.882C474.388,501.888,464.276,512,451.8,512z M293.682,466.824h135.529
	V263.529c0-16.279-22.98-46.747-38.51-62.214c-4.256-4.238-6.667-10.014-6.667-16.023V45.176h-45.176v140.118
	c0,6.024-2.406,11.797-6.683,16.039c-15.515,15.449-38.495,45.917-38.495,62.196v203.294H293.682z"/>
<rect x="316.266" y="22.588" style="fill:#E49429;" width="90.353" height="162.711"/>
<path style="fill:#4B7244;" d="M421.682,45.176H301.212c-12.475,0-22.588-10.112-22.588-22.588C278.624,10.114,288.737,0,301.212,0
	h120.471c12.475,0,22.588,10.114,22.588,22.588C444.271,35.064,434.159,45.176,421.682,45.176z"/>
<path style="fill:#4D8777;" d="M451.8,512H271.094c-12.475,0-22.588-10.112-22.588-22.588V263.529
	c0-34.111,30.222-71.106,45.176-87.32V22.588C293.682,10.114,303.796,0,316.271,0h90.353c12.475,0,22.588,10.114,22.588,22.588
	v153.621c14.955,16.215,45.176,53.209,45.176,87.32v225.882C474.388,501.888,464.276,512,451.8,512z M293.682,466.824h135.529
	V263.529c0-16.279-22.98-46.747-38.51-62.214c-4.256-4.238-6.667-10.014-6.667-16.023V45.176h-45.176v140.118
	c0,6.024-2.406,11.797-6.683,16.039c-15.515,15.449-38.495,45.917-38.495,62.196v203.294H293.682z"/>
<path style="fill:#3C695E;" d="M429.212,176.209V22.588C429.212,10.114,419.098,0,406.624,0h-45.176v45.176h22.588v140.118
	c0,6.007,2.411,11.784,6.667,16.023c15.532,15.467,38.51,45.935,38.51,62.214v203.294h-67.765v45.176H451.8
	c12.475,0,22.588-10.112,22.588-22.588V263.529C474.388,229.418,444.167,192.423,429.212,176.209z"/>
<path style="fill:#A8967C;" d="M421.682,45.176H301.212c-12.475,0-22.588-10.112-22.588-22.588C278.624,10.114,288.737,0,301.212,0
	h120.471c12.475,0,22.588,10.114,22.588,22.588C444.271,35.064,434.159,45.176,421.682,45.176z"/>
<rect x="248.501" y="293.647" style="fill:#E49429;" width="225.882" height="105.412"/>
<path style="fill:#72C8B0;" d="M180.741,466.824H143.06v-62.777c34.721-9.859,60.235-41.827,60.235-79.666V143.675
	c0-12.475-10.114-22.588-22.588-22.588h-60.235v45.176h37.647v158.118c0,20.759-16.888,37.647-37.647,37.647V512h60.27
	c12.475,0,22.588-10.112,22.588-22.588C203.329,476.937,193.217,466.824,180.741,466.824z"/>
<rect x="361.443" y="293.647" style="fill:#B77220;" width="112.941" height="105.412"/>
<path style="fill:#9B8568;" d="M421.682,0h-60.235v45.176h60.235c12.475,0,22.588-10.112,22.588-22.588
	C444.271,10.114,434.159,0,421.682,0z"/>
<g>
</g>
<g>
</g>
<g>
</g>
<g>
</g>
<g>
</g>
<g>
</g>
<g>
</g>
<g>
</g>
<g>
</g>
<g>
</g>
<g>
</g>
<g>
</g>
<g>
</g>
<g>
</g>
<g>
</g>
</svg>
