<?xml version="1.0" encoding="iso-8859-1"?>
<!-- Generator: Adobe Illustrator 19.0.0, SVG Export Plug-In . SVG Version: 6.00 Build 0)  -->
<svg version="1.1" id="Layer_1" xmlns="http://www.w3.org/2000/svg" xmlns:xlink="http://www.w3.org/1999/xlink" x="0px" y="0px"
	 viewBox="0 0 511.999 511.999" style="enable-background:new 0 0 511.999 511.999;" xml:space="preserve">
<path style="fill:#9B4573;" d="M89.125,231.176c34.048,51.626,78.823,103.376,165.034,102.874
	c81.926-0.477,135.02-44.014,166.974-102.874L89.125,231.176L89.125,231.176z"/>
<rect x="167.943" y="472.127" style="fill:#FEB860;" width="176.972" height="32.019"/>
<path style="fill:#FEC986;" d="M247.995,135.93c0-39.788-32.254-72.042-72.042-72.042c-39.787,0-72.041,32.254-72.041,72.042
	s32.254,72.042,72.041,72.042V151.94h72.042V135.93z"/>
<path style="fill:#C8546F;" d="M223.981,151.939v-16.01c0-26.525-21.502-48.028-48.028-48.028
	c-26.524,0-48.028,21.503-48.028,48.028s21.503,48.028,48.028,48.028v-32.019h48.028V151.939z"/>
<polygon style="fill:#1D1D1B;" points="311.882,135.93 296.172,135.93 296.172,0 360.06,0 360.06,15.71 311.882,15.71 "/>
<g>
	<rect x="159.941" y="256.152" style="fill:#FFFFFF;" width="16.009" height="15.71"/>
	<rect x="183.957" y="272.155" style="fill:#FFFFFF;" width="16.01" height="15.71"/>
	<rect x="239.991" y="280.168" style="fill:#FFFFFF;" width="16.009" height="15.71"/>
	<rect x="215.975" y="296.171" style="fill:#FFFFFF;" width="16.009" height="15.71"/>
	<rect x="328.042" y="272.155" style="fill:#FFFFFF;" width="16.01" height="15.71"/>
	<rect x="272.008" y="256.152" style="fill:#FFFFFF;" width="16.01" height="15.71"/>
</g>
<g>
	<path style="fill:#1D1D1B;" d="M168.097,144.084v31.243c-18.402-3.664-32.317-19.933-32.317-39.396
		c0-22.152,18.022-40.172,40.172-40.172s40.172,18.022,40.172,40.172h15.71c0-30.814-25.07-55.883-55.883-55.883
		s-55.883,25.07-55.883,55.883c0,28.148,20.922,51.489,48.028,55.32v8.388c-31.7-3.886-56.331-30.976-56.331-63.709
		c0-35.392,28.794-64.187,64.186-64.187c35.393,0,64.187,28.794,64.187,64.187h15.71c0-44.055-35.843-79.898-79.898-79.898
		S96.056,91.874,96.056,135.93s35.842,79.898,79.896,79.898h7.855v-56.032h248.272c-4.126,93.553-81.527,168.397-176.079,168.397
		S84.046,253.347,79.92,159.794h7.981v-15.71H64.037v7.855c0,103.216,81.889,187.652,184.107,191.789v104.385h15.71V343.728
		c102.22-4.136,184.107-88.572,184.107-191.789v-7.855H168.097z"/>
	<polygon style="fill:#1D1D1B;" points="296.172,167.948 296.172,224.131 111.915,224.131 111.915,239.841 296.172,239.841 
		296.172,304.028 311.882,304.028 311.882,239.841 400.083,239.841 400.083,224.131 311.882,224.131 311.882,167.948 	"/>
	<path style="fill:#1D1D1B;" d="M359.91,499.899c-0.131-19.668-16.171-35.629-35.871-35.629h-60.184v-8.155h-15.71v8.155h-59.951
		c-19.699,0-35.739,15.959-35.87,35.628l-0.709,12.101h209.004L359.91,499.899z M168.402,496.29
		c1.804-9.281,9.992-16.308,19.791-16.308h135.845c9.8,0,17.989,7.028,19.792,16.308H168.402z"/>
</g>
<g>
</g>
<g>
</g>
<g>
</g>
<g>
</g>
<g>
</g>
<g>
</g>
<g>
</g>
<g>
</g>
<g>
</g>
<g>
</g>
<g>
</g>
<g>
</g>
<g>
</g>
<g>
</g>
<g>
</g>
</svg>
